<?xml version="1.0" encoding="UTF-8" standalone="no"?>
<svg id="svg2" xmlns:rdf="http://www.w3.org/1999/02/22-rdf-syntax-ns#" xmlns="http://www.w3.org/2000/svg" height="357px" width="374px" version="1.1" xmlns:cc="http://creativecommons.org/ns#" xmlns:dc="http://purl.org/dc/elements/1.1/" viewBox="0 0 374 357">
 <title id="title4">Untitled</title>
 <desc id="desc6">Created with Sketch.</desc>
 <g id="Page-1" fill-rule="evenodd" stroke="#3B3939" stroke-width="4" fill="none">
  <path id="Path-1" d="m80.691 54.82c-5.009 14.176-15.716 23.608-23.879 36.125-3.499 5.367-5.124 11.775-8.332 17.325-7.448 12.87-14.456 23.63-24.308 34.72-3.579 4.03-21.426 22.05-21.75 24.45-1.1151 8.25 4.8134 24.27 17.332 15.29 6.532-4.69 28.03-37.15 31.699-41.81 10.228-12.99 22.649-24.09 33.336-37.15 6.074-7.428 8.255-18.808 16.621-23.493 7.92-4.432 18.14-0.695 27.21-1.043"/>
  <path id="Path-2" d="m78.117 60.539c0-24.532 35.953 2.101 41.113-5.168 3.75-5.276-2.63-27.67 7.86-32.375 2.55-1.144 5.65 0.535 8.39 0 0.95-0.186 1.71-1.141 2.08-2.039 2.5-6.046-17.83-14.278 6.95-18.031 12.27-1.8593 24.92-0.6905 37.22 0.9998 2.16 0.2963 9.42 4.8731 6.74 9.0432-0.74 1.144-2.9 0.634-3.7 1.738-0.57 0.798 5.99 3.796 6.74 5 2.83 4.523 4.52 9.784 7.86 13.941 1.39 1.726 4.1 1.791 5.86 3.125 0.62 0.468 0.33 1.78 1.04 2.086 5.51 2.364 30.28 5.603 30.28 15.207"/>
  <path id="Path-3" d="m236.16 51.082c15.79 21.768 10.1 33.446-4.55 51.498"/>
  <path id="Path-4" d="m233.34 100.06c-17.69 2.55-18.89 0.84-35.96 14.77-4.84 3.94-4.48 30.19-3.83 33.42 0.5 2.43 3.16 3.82 4.74 5.73"/>
  <path id="Path-5" d="m198.98 152.82c10.9 11.37 19.29 9.02 33.22 14.5 39.88 15.68 77.18 20.31 115.24 42.71 26.15 15.39 13.39 2.85 24.57 14.93"/>
  <path id="Path-6" d="m372.01 221.96c-3.85 11.4 3.59-9.06-15.97 17.32-3.21 4.31-4.37 9.82-6.56 14.72"/>
  <path id="Path-7" d="m350.42 253.9c-13.24 0-4.86 4.76-26.58-10.03-8.33-5.68-16.85-8.91-25.63-12.56-17.19-7.13-29.09-14.84-47.71-17.97-7.75-1.3-17.25-1.77-18.7 8.04-2.23 15.25 4.25 16.62 5.48 30.56 2.8 31.82-0.61 14.65 1.73 31.33 0.05 0.34 1.04-0.35 1.04 0 0.05 50.18-11.82 35.04 4.17 51.98"/>
  <path id="Path-8" d="m244.22 335.25c0.35 4.81 2.22 9.75 1.05 14.43-0.44 1.73-3.3 1.67-5.09 1.69-33.36 0.32-66.72-0.81-100.09-0.69-13.26 0.04-31.32 3.82-46.348 3.82"/>
  <path id="Path-9" d="m93.742 354.5c-2.542-18.9-6.163-12.25 6.043-21.91"/>
  <path id="Path-10" d="m99.785 332.59l-2.777-77.81"/>
  <path id="Path-11" d="m97.008 254.78c0-33 33.862-37.33 35.902-68.43 1.93-29.32 1.68-58.85-0.69-88.131-0.51-6.312-2.92-13.337-7.86-17.293-4.53-3.62-11.94-0.246-17.17-2.735"/>
  <path id="Path-12" d="m96.273 337.43c125.04 1.13 78.047 11.94 144.46-7.82"/>
  <path id="Path-13" d="m213.68 62.48c-4.83 0.102-9.79-0.749-14.51 0.305-3.41 0.761-3.59 7.641-2.04 17.031 1.7 10.316 38.33 5.577 21.86-13.781"/>
  <path id="Path-14" d="m91.98 51.801c14.12 3.124 12.86 18.303 12.86 29.375"/>
  <path id="Path-15" d="m139.07 20.852c47.43 0 33.28 8.216 49.07-1.692"/>
  <path id="Path-16" d="m130.91 85.176c19.76 0 42.86 9.837 61.31 2.433"/>
  <path id="Path-18" d="m212.39 62.844c7.35 1.289 4.77-0.686 8.13 5.386"/>
  <path id="Path-19" d="m189.7 87.648c5.88-1.652 2.93-0.016 7.78-6.472"/>
 </g>
</svg>
